<?xml version="1.0" encoding="UTF-8"?>
<svg id="Layer_1" data-name="Layer 1" xmlns="http://www.w3.org/2000/svg" viewBox="0 0 400 400">
  <defs>
    <style>
      .cls-1 {
        fill: #ccc;
      }

      .cls-1, .cls-2 {
        stroke-width: 0px;
      }

      .cls-2 {
        fill: #fff;
      }
    </style>
  </defs>
  <circle class="cls-1" cx="200" cy="200" r="200"/>
  <path class="cls-2" d="m234.47,210.42c16.87-11.2,28.03-30.36,28.03-52.08,0-34.46-28.04-62.5-62.5-62.5s-62.5,28.04-62.5,62.5c0,21.73,11.16,40.88,28.03,52.08-38.18,14.09-65.53,50.74-65.53,93.75h16.67c0-45.95,37.38-83.33,83.33-83.33s83.33,37.38,83.33,83.33h16.67c0-43.01-27.35-79.66-65.53-93.75Zm-34.47-6.25c-25.27,0-45.83-20.56-45.83-45.83s20.56-45.83,45.83-45.83,45.83,20.56,45.83,45.83-20.56,45.83-45.83,45.83Z"/>
</svg>